<svg width="256" height="216" viewBox="0 0 512 432" xmlns="http://www.w3.org/2000/svg"><g fill="#499AE5" fill-rule="evenodd"><path d="m167.341003 116.479492-39.858245-93.382934 11.133102-11.131165 39.858261 93.382935z"/><path d="m379.472443 427.711761-39.858216-93.382934 11.133087-11.131195 39.858246 93.382965z"/><path d="m14.504942 332.541382 93.399179-39.851319 11.133126 11.131196-93.399189 39.851318z"/><path d="m391.894623 131.261841 93.39917-39.851319 11.133117 11.131165-93.39917 39.851318z"/><path d="m275.951172 94.691498 37.859161-94.210846h15.744599l-37.859131 94.210846z"/><path d="m191.819733 431.759674 37.859146-94.210846h15.744613l-37.859176 94.210846z"/><path d="m.240377 149.727966 94.227236 37.85257v15.741867l-94.227236-37.852554z"/><path d="m417.292023 233.844788 94.227234 37.852569v15.741852l-94.227234-37.85257z"/><path d="m341.513672 254.392578c-4.807526 0-9.093506-.84111-12.859375-2.523437-3.76593-1.682343-6.692108-4.445649-8.775391-8.291016h-.960937l-3.125 9.373047h-17.066406l15.263671-87h20.91211l-5.28711 30.642578h.841797c1.762757-1.922668 3.764282-3.506302 6.007813-4.748047 2.24353-1.241714 4.628418-2.162842 7.152344-2.763672 2.523956-.600845 5.066833-.90039 7.630859-.90039 5.128021 0 9.596374.900619 13.402344 2.703125 3.805969 1.80249 6.769287 4.547287 8.892578 8.232422 2.123352 3.685134 3.185547 8.290634 3.185547 13.818359 0 2.72377-.219452 5.34758-.660157 7.871094-.440704 2.523513-1.062042 4.946334-1.863281 7.269531-1.682678 6.008392-4.126984 10.956406-7.332031 14.841797-3.205017 3.885422-6.970093 6.769714-11.296875 8.652344-4.326813 1.882614-9.014588 2.822265-14.0625 2.822265zm-96.029297-1.441406 11.175781-63.328125h16.947266l-.119141 10.214844h.839844c1.442261-2.403336 3.125824-4.485596 5.048828-6.248047 1.923035-1.762467 4.045471-3.124619 6.369141-4.085938 2.323639-.961364 4.768005-1.443359 7.332031-1.443359 1.682617 0 3.224762.121017 4.626953.361328 1.402191.240356 2.583435.560364 3.544922.960938l-3.003906 17.423828h-8.414063c-2.644134 0-5.006592.401992-7.089843 1.203125-2.083252.801101-3.885834 1.921264-5.408204 3.363281-1.522369 1.442016-2.744598 3.165161-3.666015 5.167969-.921479 2.002761-1.58371 4.245086-1.984375 6.728515l-5.28711 29.681641zm91.341797-14.541016c3.365265 0 6.250488-.619613 8.654297-1.861328 2.403747-1.241745 4.325287-3.024414 5.767578-5.347656 1.442261-2.323258 2.483978-5.127518 3.125-8.412109.240356-1.60225.441284-2.863877.601562-3.785157.160248-.921264.260743-1.661865.300782-2.222656.040069-.560791.060547-1.081833.060547-1.5625 0-2.323242-.440888-4.304977-1.322266-5.947266-.881378-1.642288-2.244995-2.924423-4.087891-3.845703-1.842865-.92131-4.205322-1.382812-7.089843-1.382812-2.403779 0-4.608155.400085-6.611329 1.201172-2.003143.801147-3.744232 1.923217-5.226562 3.365234-1.4823 1.442017-2.704529 3.165207-3.666016 5.167969-.961517 2.002807-1.683288 4.206039-2.164062 6.609375-.160248 1.121582-.299774 2.081711-.419922 2.882812-.120209.801132-.200195 1.46167-.240234 1.982422-.04007.520706-.060547.982239-.060547 1.382813 0 2.403335.440857 4.485595 1.322265 6.248047.881378 1.762451 2.222595 3.124603 4.025391 4.085937 1.802826.961349 4.146698 1.441406 7.03125 1.441406zm-152.277817 15.98317c-9.214432 0-17.106689-1.301789-23.676987-3.905426-6.570312-2.603623-11.578094-6.42891-15.023468-11.475952-3.445404-5.047013-5.16809-11.215516-5.16809-18.505692 0-3.685135.420654-7.169922 1.261978-10.454529.841308-3.284576 2.023147-6.32875 3.545547-9.13266 2.483887-6.889602 6.029389-12.697616 10.636597-17.424194 4.607239-4.726623 10.255997-8.331604 16.946487-10.815033 6.690491-2.483459 14.322327-3.725159 22.895783-3.725159 9.294571 0 17.206848 1.301758 23.737091 3.905396 6.530243 2.603607 11.537994 6.428909 15.023468 11.475937 3.485458 5.047027 5.228165 11.295639 5.228165 18.746048 0 3.444778-.40062 6.729309-1.201874 9.853698-.801255 3.124344-1.963059 6.048356-3.485443 8.772172-2.323655 7.049819-5.829087 12.998031-10.516434 17.844787-4.687347 4.846741-10.416245 8.531845-17.186859 11.055359-6.770615 2.523499-14.44252 3.785248-23.015961 3.785248zm1.081696-17.544357c3.926162 0 7.551788-.520722 10.876999-1.56218 3.325195-1.041443 6.269775-2.563553 8.833801-4.566345 2.56401-2.002808 4.667267-4.466172 6.30986-7.390259 1.642563-2.924072 2.784332-6.188583 3.425339-9.793594.240372-1.442017.440689-2.663712.600937-3.665116.160247-1.001404.280441-1.842544.360565-2.523514.080124-.680923.140228-1.281753.180282-1.80249.04007-.520706.06009-.981354.06009-1.381912 0-3.765228-.841309-6.969666-2.523926-9.613358-1.682633-2.643692-4.126435-4.666473-7.331467-6.06842-3.205032-1.401962-7.091049-2.102921-11.658203-2.102921-3.926178 0-7.531769.520707-10.81691 1.562165-3.285156 1.041443-6.189667 2.563553-8.713608 4.56636-2.523956 2.002777-4.607193 4.446152-6.249771 7.330155-1.642578 2.884033-2.784347 6.128509-3.425354 9.73352-.320495 1.522156-.540847 2.78389-.661041 3.785248-.120178 1.001404-.220337 1.86261-.300461 2.583618-.080124.720978-.140228 1.321808-.180282 1.802506-.04007.480667-.060089.92128-.060089 1.321808 0 3.685134.841308 6.869552 2.523941 9.553283 1.682632 2.683731 4.106384 4.726563 7.271347 6.128525 3.164962 1.401947 6.990905 2.102921 11.477951 2.102921z"/></g></svg>